HIERARCHY
ROOT Hips
{
	OFFSET 0.000000 0.000000 0.000000
	CHANNELS 6 Xposition Yposition Zposition Zrotation Yrotation Xrotation 
	JOINT LHipJoint
	{
		OFFSET 0.000000 0.000000 0.000000
		CHANNELS 3 Zrotation Yrotation Xrotation
		JOINT LeftUpLeg
		{
			OFFSET 1.363060 -1.794630 0.839290
			CHANNELS 3 Zrotation Yrotation Xrotation
			JOINT LeftLeg
			{
				OFFSET 2.448110 -6.726130 0.000000
				CHANNELS 3 Zrotation Yrotation Xrotation
				JOINT LeftFoot
				{
					OFFSET 2.562200 -7.039590 0.000000
					CHANNELS 3 Zrotation Yrotation Xrotation
					JOINT LeftToeBase
					{
						OFFSET 0.157640 -0.433110 2.322550
						CHANNELS 3 Zrotation Yrotation Xrotation
						End Site
						{
							OFFSET 0.000000 0.000000 0.000000
						}
					}
				}
			}
		}
	}
	JOINT RHipJoint
	{
		OFFSET 0.000000 0.000000 0.000000
		CHANNELS 3 Zrotation Yrotation Xrotation
		JOINT RightUpLeg
		{
			OFFSET -1.305520 -1.794630 0.839290
			CHANNELS 3 Zrotation Yrotation Xrotation
			JOINT RightLeg
			{
				OFFSET -2.542530 -6.985550 0.000000
				CHANNELS 3 Zrotation Yrotation Xrotation
				JOINT RightFoot
				{
					OFFSET -2.568260 -7.056230 0.000000
					CHANNELS 3 Zrotation Yrotation Xrotation
					JOINT RightToeBase
					{
						OFFSET -0.164730 -0.452590 2.363150
						CHANNELS 3 Zrotation Yrotation Xrotation
						End Site
						{
							OFFSET 0.000000 0.000000 0.000000
						}
					}
				}
			}
		}
	}
	JOINT LowerBack
	{
		OFFSET 0.000000 0.000000 0.000000
		CHANNELS 3 Zrotation Yrotation Xrotation
		JOINT Spine
		{
			OFFSET 0.028270 2.035590 -0.193380
			CHANNELS 3 Zrotation Yrotation Xrotation
			JOINT Spine1
			{
				OFFSET 0.056720 2.048850 -0.042750
				CHANNELS 3 Zrotation Yrotation Xrotation
				JOINT Neck
				{
					OFFSET 0.000000 0.000000 0.000000
					CHANNELS 3 Zrotation Yrotation Xrotation
					JOINT Neck1
					{
						OFFSET -0.054170 1.746240 0.172020
						CHANNELS 3 Zrotation Yrotation Xrotation
						JOINT Head
						{
							OFFSET 0.104070 1.761360 -0.123970
							CHANNELS 3 Zrotation Yrotation Xrotation
							End Site
							{
								OFFSET 0.000000 0.000000 0.000000
							}
						}
					}
				}
				JOINT LeftShoulder
				{
					OFFSET 0.000000 0.000000 0.000000
					CHANNELS 3 Zrotation Yrotation Xrotation
					JOINT LeftArm
					{
						OFFSET 3.362410 1.200890 -0.311210
						CHANNELS 3 Zrotation Yrotation Xrotation
						JOINT LeftForeArm
						{
							OFFSET 4.983000 -0.000000 -0.000000
							CHANNELS 3 Zrotation Yrotation Xrotation
							JOINT LeftHand
							{
								OFFSET 3.483560 -0.000000 -0.000000
								CHANNELS 3 Zrotation Yrotation Xrotation
								JOINT LeftFingerBase
								{
									OFFSET 0.000000 0.000000 0.000000
									CHANNELS 3 Zrotation Yrotation Xrotation
									JOINT LeftHandIndex1
									{
										OFFSET 0.715260 -0.000000 -0.000000
										CHANNELS 3 Zrotation Yrotation Xrotation
										End Site
										{
											OFFSET 0.000000 0.000000 0.000000
										}
									}
								}
								JOINT LThumb
								{
									OFFSET 0.000000 0.000000 0.000000
									CHANNELS 3 Zrotation Yrotation Xrotation
									End Site
									{
										OFFSET 0.000000 0.000000 0.000000
									}
								}
							}
						}
					}
				}
				JOINT RightShoulder
				{
					OFFSET 0.000000 0.000000 0.000000
					CHANNELS 3 Zrotation Yrotation Xrotation
					JOINT RightArm
					{
						OFFSET -3.136600 1.374050 -0.404650
						CHANNELS 3 Zrotation Yrotation Xrotation
						JOINT RightForeArm
						{
							OFFSET -5.241900 -0.000000 -0.000000
							CHANNELS 3 Zrotation Yrotation Xrotation
							JOINT RightHand
							{
								OFFSET -3.444170 -0.000000 -0.000000
								CHANNELS 3 Zrotation Yrotation Xrotation
								JOINT RightFingerBase
								{
									OFFSET 0.000000 0.000000 0.000000
									CHANNELS 3 Zrotation Yrotation Xrotation
									JOINT RightHandIndex1
									{
										OFFSET -0.622530 -0.000000 -0.000000
										CHANNELS 3 Zrotation Yrotation Xrotation
										End Site
										{
											OFFSET 0.000000 0.000000 0.000000
										}
									}
								}
								JOINT RThumb
								{
									OFFSET 0.000000 0.000000 0.000000
									CHANNELS 3 Zrotation Yrotation Xrotation
									End Site
									{
										OFFSET 0.000000 0.000000 0.000000
									}
								}
							}
						}
					}
				}
			}
		}
	}
}
MOTION
Frames: 4
Frame Time: 0.008333
1.122205 17.857429 5.660777 1.834796 -0.387840 -1.582201 -1.498666 5.961207 5.678916 -22.287080 -5.651950 -5.578712 0.002824 5.514258 23.029387 0.332828 -0.414345 -1.805090 0.021363 -0.852064 -2.342615 0.711658 -4.109589 2.970608 17.307484 9.132635 -32.909700 -6.254042 -13.975107 46.321413 2.711666 -10.945439 4.946201 -0.013062 0.728257 -2.001387 -2.778434 -1.470359 3.138686 3.923366 -1.922137 5.564908 3.597254 -1.066077 -5.750762 -5.471520 -3.290562 -15.096879 2.835153 -3.420478 17.756593 -0.096978 -1.431207 8.852454 -7.153763 2.478580 -1.171724 -76.268947 1.161156 32.852872 14.921592 -24.774634 -3.467066 -0.437204 -0.703518 -4.025605 28.959795 17.923947 10.207385 -7.125000 0.000000 0.000000 1.308555 51.104961 0.194764 11.211954 -2.044162 -2.767689 72.970211 -3.909413 11.353563 -10.699742 22.823445 -2.704181 0.887651 -0.304096 5.085252 -13.739392 19.078836 -4.921285 7.125000 0.000000 0.000000 8.813456 -10.333923 7.177092
1.120705 17.864353 5.755978 1.816896 -0.347109 -1.476420 -1.524037 6.007222 5.758569 -22.224012 -5.398473 -5.040307 -0.067546 5.354219 22.608202 0.317829 -0.322249 -2.041197 0.047288 -1.369593 -3.766844 0.798685 -4.093736 2.915587 17.133557 9.433828 -32.815563 -5.775029 -13.584202 44.562020 2.905741 -11.540276 5.094764 -0.008385 0.584772 -1.606961 -2.833823 -1.521706 3.047319 4.018942 -1.986187 5.560935 3.674821 -1.104354 -5.705905 -5.586495 -3.345455 -15.193039 2.887764 -3.462973 17.818440 -0.067935 -1.451820 8.890563 -7.152313 2.477543 -1.168757 -76.232199 1.046109 32.820766 15.063636 -24.966823 -3.533421 -0.436388 -0.686499 -4.191907 28.964652 17.070946 9.757355 -7.125000 0.000000 0.000000 1.448864 50.136882 0.182292 11.206265 -2.043511 -2.774113 72.939074 -4.056432 11.366949 -10.717227 22.858041 -2.708320 0.892574 -0.319005 5.035073 -13.751595 19.432962 -5.017654 7.125000 0.000000 0.000000 8.813167 -9.960168 7.244475
1.122130 17.868972 5.855211 1.922260 -0.262716 -1.389594 -1.551252 6.040086 5.822951 -22.303064 -5.255588 -4.542072 -0.130257 5.204121 22.226465 0.310912 -0.290713 -2.170413 0.059775 -1.574400 -4.330965 0.881531 -4.075828 2.864406 16.803913 9.622750 -32.726384 -5.302599 -13.180816 42.794636 3.054754 -12.003231 5.373075 -0.005792 0.486392 -1.336586 -2.947222 -1.584291 2.968560 4.027011 -2.069967 5.591537 3.740492 -1.151971 -5.639276 -5.591148 -3.376129 -15.373461 2.875806 -3.481201 17.834387 -0.073397 -1.461656 8.926721 -7.153873 2.474635 -1.170702 -76.158254 0.880735 32.799446 15.232332 -25.205302 -3.602723 -0.419066 -0.722012 -4.314823 28.647294 18.842181 10.524728 -7.125000 0.000000 0.000000 0.756076 52.066595 0.083423 11.207120 -2.043852 -2.772143 72.940416 -4.054292 11.199874 -10.613267 22.696522 -2.652963 0.902514 -0.357241 5.249932 -13.857588 20.120597 -5.238118 7.125000 0.000000 0.000000 8.762539 -9.221179 7.332304
1.124277 17.872686 5.955501 2.061889 -0.164179 -1.307069 -1.579204 6.068579 5.882110 -22.420358 -5.152388 -4.061201 -0.190624 5.057907 21.857971 0.306811 -0.279761 -2.260483 0.067005 -1.667028 -4.586459 0.963436 -4.057225 2.814307 16.429217 9.782052 -32.638268 -4.833025 -12.772558 41.025333 3.191574 -12.429642 5.684220 -0.003942 0.385813 -1.060200 -3.076319 -1.649568 2.895451 4.009062 -2.158714 5.630456 3.801805 -1.201849 -5.568402 -5.560973 -3.398872 -15.573847 2.845360 -3.492511 17.832638 -0.089252 -1.468301 8.960111 -7.156369 2.471001 -1.174072 -76.071584 0.699108 32.784423 15.405647 -25.452769 -3.671486 -0.396879 -0.772727 -4.425972 28.231467 21.372651 11.639082 -7.125000 0.000000 0.000000 -0.189870 54.831981 -0.048435 11.210136 -2.044713 -2.767562 72.953340 -4.005778 10.975674 -10.470498 22.472218 -2.579000 0.913933 -0.401414 5.544526 -13.995504 20.884781 -5.491311 7.125000 0.000000 0.000000 8.693617 -8.396909 7.419090
